<svg width="291" height="290" viewBox="0 0 291 290" fill="none" xmlns="http://www.w3.org/2000/svg">
<g filter="url(#filter0_d_83_27)">
<path fill-rule="evenodd" clip-rule="evenodd" d="M93.7727 22.3301C90.0795 23.7943 87.5133 25.2153 82.0224 28.8373C78.2249 31.3424 78.2249 31.3424 74.0701 30.0906C70.6304 29.0539 68.9497 28.8303 64.3022 28.7923C57.5451 28.7375 54.4839 29.4513 48.1894 32.5488C44.5412 34.3444 43.0662 35.4261 39.7234 38.7584C35.3702 43.0984 32.9958 46.7186 31.1798 51.7846C28.5948 58.9976 28.4199 66.0687 30.6377 73.7359C31.8263 77.8458 31.8263 77.8458 29.0551 82.1136C25.1852 88.0734 24.0578 90.1403 22.6905 93.7787C19.052 103.464 23.8651 109.267 33.2264 106.482C36.7329 105.439 40.4972 103.482 46.4455 99.6077C51.5097 96.3096 51.5097 96.3096 54.0297 97.1054C65.7229 100.799 79.6868 97.2315 88.6359 88.2651C97.5851 79.2987 101.145 65.308 97.4593 53.5923C96.665 51.0675 96.665 51.0675 99.9563 45.9935C105.396 37.6064 107.574 32.5488 107.57 28.3082C107.566 21.7602 101.663 19.2026 93.7727 22.3301ZM210.017 21.6857C196.591 24.5685 185.123 33.7655 179.614 46.069C176.859 52.2195 176.112 56.0613 176.148 63.8846C176.177 70.1373 176.321 71.3784 177.452 75.104C181.873 89.6796 192.458 100.284 207.006 104.714C210.724 105.847 211.963 105.992 218.203 106.021C224.104 106.048 225.841 105.884 229.12 104.991C236.686 102.932 242.449 99.6419 248.064 94.1789C257.409 85.0869 261.485 74.5889 260.868 61.1948C260.549 54.2719 259.8 51.3112 256.786 45.0725C253.951 39.2018 250.098 34.2731 245.359 30.4533C241.439 27.2939 233.979 23.4076 229.43 22.1558C225.557 21.0895 214.086 20.8116 210.017 21.6857ZM118.163 29.2362C115.066 30.227 111.711 33.6071 110.883 36.5725C109.36 42.0233 111.309 47.5392 115.725 50.2749C118.866 52.2204 123.637 52.5232 126.904 50.9845C131.24 48.9429 134.16 43.8347 133.617 39.2426C132.732 31.7493 125.317 26.9485 118.163 29.2362ZM97.2553 29.6472C94.9183 30.5101 91.9053 32.0862 88.606 34.1724C85.7783 35.9604 85.7783 35.9604 89.0738 39.4165C92.3693 42.8725 92.3693 42.8725 93.9243 40.4897C96.8619 35.9871 100.135 28.9072 99.2364 29.0004C99.0615 29.0187 98.1699 29.3098 97.2553 29.6472ZM211.187 29.7344C204.274 31.1915 196.222 36.1811 191.693 41.8133C184.714 50.4933 182.11 63.0217 185.248 72.8224C185.71 74.2617 185.71 74.2617 188.609 72.8224C191.172 71.5509 191.972 71.3849 195.5 71.3957C199.132 71.407 199.757 71.5509 202.432 72.993C205.773 74.7937 207.592 76.6698 209.411 80.1887C210.485 82.2678 210.677 83.2286 210.696 86.6317C210.717 90.1778 210.556 90.9605 209.283 93.5359C207.846 96.4408 207.846 96.4408 209.283 96.9053C215.325 98.8597 224.325 98.4688 230.892 95.967C232.1 95.5072 232.1 95.5072 230.36 93.5786C227.532 90.4417 226.191 86.9987 226.179 82.8438C226.169 79.7814 226.374 78.8872 227.702 76.1847C230.274 70.9505 234.737 67.9162 240.468 67.5052C244.238 67.2352 247.047 67.9068 250.005 69.7863C251.183 70.5348 252.209 70.912 252.367 70.6557C252.521 70.4059 252.769 68.316 252.918 66.011C253.747 53.1869 247.727 41.2668 236.923 34.3425C229.535 29.6078 219.938 27.8892 211.187 29.7344ZM60.7939 36.9948C52.0402 37.9279 43.9358 43.607 40.144 51.4645C37.9533 56.0041 37.3377 58.7 37.3377 63.7557C37.3377 69.8861 39.1134 75.0871 42.9558 80.2121C44.456 82.2134 49.6016 86.6158 50.4404 86.6158C51.0377 86.6158 61.9778 77.0143 67.5075 71.6366C74.7984 64.5464 86.9898 50.9152 86.9898 49.8536C86.9898 49.0493 82.6305 44.0457 80.5741 42.4887C74.6543 38.0071 68.175 36.2074 60.7939 36.9948ZM120.67 37.0271C118.172 37.9528 117.567 40.8984 119.48 42.8149C122.12 45.4606 125.764 43.4139 125.358 39.513C125.144 37.4471 122.837 36.2238 120.67 37.0271ZM213.759 37.4419C206.167 40.8853 204.409 50.4587 210.288 56.3486C218.976 65.0535 232.987 56.3931 229.656 44.3765C229.028 42.1119 225.92 38.6511 223.43 37.4433C220.762 36.1493 216.611 36.1483 213.759 37.4419ZM216.223 45.3556C215.68 45.8627 215.101 46.7026 214.936 47.2229C214.248 49.3966 217.227 52.3812 219.396 51.6913C219.916 51.5263 220.754 50.9461 221.26 50.402C224.183 47.259 219.36 42.4273 216.223 45.3556ZM154.219 48.2165C151.495 48.8745 149.946 49.8386 147.938 52.1239C142.923 57.832 144.469 66.326 151.191 69.9967C158.887 74.1994 168.28 68.6586 168.364 59.867C168.435 52.4182 161.266 46.5137 154.219 48.2165ZM239.595 52.2467C238.804 52.5659 237.616 54.9168 237.616 56.164C237.616 56.7123 238.258 57.8034 239.041 58.5885C240.274 59.823 240.701 59.9786 242.199 59.7386C244.332 59.3965 245.569 57.9675 245.569 55.8438C245.569 52.9675 242.456 51.0933 239.595 52.2467ZM193.347 56.231C191.167 57.2883 190.7 60.5152 192.453 62.4101C194.903 65.0591 199.258 63.3034 199.258 59.6664C199.258 56.5684 196.252 54.8212 193.347 56.231ZM154.096 57.3019C151.803 59.5989 153.383 63.1816 156.69 63.1816C158.741 63.1816 160.432 61.5552 160.432 59.5821C160.432 57.9689 158.45 56.1513 156.69 56.1513C155.778 56.1513 154.82 56.5764 154.096 57.3019ZM85.9555 64.0018C80.8347 69.8631 70.2693 80.4488 64.4192 85.5795C61.9109 87.7791 59.8583 89.756 59.8583 89.972C59.8583 90.6376 67.4514 90.407 70.4022 89.6519C79.9562 87.2082 87.5811 79.5686 90.0201 69.9962C90.7737 67.0398 91.0039 59.4321 90.3396 59.4321C90.124 59.4321 88.1509 61.4887 85.9555 64.0018ZM215.928 68.3713C213.255 70.4771 215.02 75.3674 218.452 75.3674C220.27 75.3674 222.647 73.1509 222.647 71.4557C222.647 70.8113 222.102 69.6349 221.436 68.8419C219.969 67.0946 217.784 66.9081 215.928 68.3713ZM137.33 75.6668C131.695 77.401 122.649 90.7618 118.177 103.957C115.37 112.237 114.558 117.122 114.259 127.508C113.993 136.765 113.993 136.765 93.4766 136.765C72.9605 136.765 72.9605 136.765 64.4786 129.987C58.4601 125.177 55.3007 122.969 53.6007 122.384C50.3178 121.255 45.7045 121.362 42.8365 122.633C41.6039 123.179 36.3011 127.057 31.053 131.25C21.5107 138.874 21.5107 138.874 21.5051 187.225C21.4999 235.576 21.4999 235.576 31.0446 247.035C39.3272 256.979 40.9168 258.658 43.0648 259.73C46.9362 261.663 52.0018 261.368 55.4359 259.011C56.2718 258.437 60.6956 253.475 65.2668 247.984C73.5775 238.001 73.5775 238.001 141.253 238.001C208.928 238.001 208.928 238.001 217.239 247.984C221.81 253.475 226.234 258.437 227.07 259.011C230.505 261.369 235.569 261.663 239.444 259.729C241.601 258.652 243.191 256.967 251.698 246.749C261.474 235.006 261.474 235.006 261.474 186.667C261.474 147.416 261.36 138.327 260.868 138.327C260.535 138.327 256.04 134.947 250.879 130.815C240.689 122.658 238.792 121.609 234.173 121.584C229.244 121.557 227.328 122.554 218.027 129.987C209.545 136.765 209.545 136.765 189.029 136.765C168.513 136.765 168.513 136.765 168.246 127.508C167.948 117.122 167.136 112.237 164.329 103.957C161.214 94.7657 154.985 83.9171 149.887 78.8042C146.268 75.1743 142.22 74.1628 137.33 75.6668ZM238.763 76.0268C237.072 76.7645 234.927 79.1871 234.518 80.8214C234.048 82.6976 234.609 85.954 235.656 87.4266C236.189 88.1774 237.488 89.1814 238.541 89.6575C240.457 90.5227 240.457 90.5227 242.361 88.6864C243.409 87.6764 245.296 85.3935 246.554 83.6129C248.844 80.3757 248.844 80.3757 248.014 78.9261C247.047 77.2355 243.653 75.3594 241.61 75.3856C240.829 75.3959 239.548 75.6842 238.763 76.0268ZM192.917 79.6174C192.131 79.8466 190.999 80.5548 190.402 81.1917C189.316 82.3498 189.316 82.3498 191.675 85.3203C192.973 86.9542 195.328 89.3093 196.909 90.5537C199.784 92.8169 199.784 92.8169 200.93 91.739C203.51 89.3107 203.443 84.816 200.784 81.8671C198.599 79.4449 196.032 78.7105 192.917 79.6174ZM138.811 83.9208C137.635 84.8409 133.544 90.4866 131.447 94.0852C129.606 97.2418 126.284 104.527 126.284 105.405C126.284 105.653 132.576 105.832 141.303 105.832C156.323 105.832 156.323 105.832 156.002 104.543C154.99 100.494 148.169 88.7309 144.586 84.8582C143.465 83.6457 142.808 83.335 141.369 83.335C140.374 83.335 139.224 83.5989 138.811 83.9208ZM34.3664 88.6991C32.3792 91.8964 30.3317 96.0682 29.7082 98.1895C29.4322 99.1292 29.5192 99.1854 30.7153 98.8414C32.4948 98.3291 38.046 95.4669 40.9523 93.5636C43.3305 92.0057 43.3305 92.0057 39.8759 88.6991C36.4218 85.3925 36.4218 85.3925 34.3664 88.6991ZM83.256 106.75C77.8961 108.603 74.5486 114.4 75.6858 119.858C76.6794 124.625 80.1901 128.264 84.7398 129.241C92.0269 130.807 98.8023 125.294 98.8009 117.801C98.8 112.527 95.4815 107.992 90.5506 106.524C87.5512 105.632 86.3831 105.668 83.256 106.75ZM183.665 106.144C183.494 106.316 183.353 108.109 183.353 110.128C183.353 113.799 183.353 113.799 179.611 113.799C175.869 113.799 175.869 113.799 175.869 117.783C175.869 121.767 175.869 121.767 179.592 121.767C183.316 121.767 183.316 121.767 183.452 125.634C183.587 129.5 183.587 129.5 187.564 129.5C191.54 129.5 191.54 129.5 191.675 125.634C191.811 121.767 191.811 121.767 195.535 121.767C199.258 121.767 199.258 121.767 199.258 117.783C199.258 113.799 199.258 113.799 195.516 113.799C191.774 113.799 191.774 113.799 191.774 109.816C191.774 105.832 191.774 105.832 187.876 105.832C185.731 105.832 183.837 105.972 183.665 106.144ZM84.6509 115.206C84.0718 115.786 83.7153 116.768 83.7153 117.783C83.7153 119.902 85.0766 121.298 87.1423 121.298C90.312 121.298 91.9259 117.43 89.6496 115.287C88.2715 113.99 85.9027 113.951 84.6509 115.206ZM123.006 117.432C122.582 119.64 122.338 127.181 122.2 142.396C121.978 166.838 122.083 167.948 125.147 173.791C127.006 177.335 129.558 180.197 129.558 178.737C129.558 175.179 133.225 170.216 136.891 168.814C139.644 167.761 142.862 167.761 145.614 168.814C149.28 170.216 152.947 175.179 152.947 178.737C152.947 180.197 155.5 177.335 157.359 173.791C160.423 167.948 160.527 166.838 160.306 142.396C160.168 127.181 159.924 119.64 159.499 117.432C158.89 114.268 158.89 114.268 141.253 114.268C123.615 114.268 123.615 114.268 123.006 117.432ZM183.821 117.783C183.821 121.298 183.821 121.298 187.564 121.298C191.306 121.298 191.306 121.298 191.306 117.783C191.306 114.268 191.306 114.268 187.564 114.268C183.821 114.268 183.821 114.268 183.821 117.783ZM138.68 121.715C132.971 123.198 129.172 128.419 129.655 134.119C130.522 144.353 142.624 148.612 149.776 141.202C155.118 135.667 153.425 126.296 146.44 122.726C144.375 121.671 140.696 121.191 138.68 121.715ZM45.5909 130.289C45.0763 130.579 41.2348 133.545 37.0538 136.88C29.4523 142.945 29.4523 142.945 29.4523 186.489C29.4523 230.033 29.4523 230.033 48.6315 230.033C67.8106 230.033 67.8106 230.033 67.8106 186.529C67.8106 143.025 67.8106 143.025 60.2536 136.966C56.0973 133.633 52.2554 130.65 51.7165 130.337C50.4844 129.622 46.8291 129.593 45.5909 130.289ZM138.48 130.97C137.947 131.649 137.511 132.713 137.511 133.334C137.511 134.947 139.493 136.765 141.253 136.765C143.013 136.765 144.995 134.947 144.995 133.334C144.995 131.361 143.304 129.735 141.253 129.735C139.862 129.735 139.228 130.017 138.48 130.97ZM230.789 130.337C230.25 130.65 226.408 133.633 222.252 136.966C214.695 143.025 214.695 143.025 214.695 186.529C214.695 230.033 214.695 230.033 233.874 230.033C253.053 230.033 253.053 230.033 253.053 186.461C253.053 142.889 253.053 142.889 246.082 137.27C242.247 134.179 238.405 131.22 237.544 130.694C235.777 129.615 232.345 129.433 230.789 130.337ZM21.7254 187.149C21.7254 213.957 21.7816 224.856 21.8508 211.367C21.9195 197.879 21.9195 175.944 21.8508 162.624C21.7816 149.304 21.7254 160.34 21.7254 187.149ZM43.7197 141.875C41.3916 142.959 38.6171 145.817 37.6614 148.116C35.7739 152.654 37.5248 158.93 41.5174 161.941C49.6002 168.034 61.2238 161.55 60.1909 151.524C59.7194 146.945 56.4524 142.731 52.4402 141.527C49.7527 140.72 45.8664 140.875 43.7197 141.875ZM231.28 145.883C228.853 148.315 230.531 152.7 233.889 152.7C235.751 152.7 238.084 150.485 238.084 148.716C238.084 147.967 237.541 146.928 236.717 146.103C234.972 144.354 232.89 144.271 231.28 145.883ZM75.763 179.884C75.763 214.567 75.763 214.567 141.253 214.567C206.743 214.567 206.743 214.567 206.743 179.884C206.743 145.201 206.743 145.201 187.564 145.201C168.384 145.201 168.384 145.201 168.384 148.716C168.384 152.232 168.384 152.232 171.074 152.234C182.387 152.246 189.705 157.771 191.378 167.562C192.888 176.396 187.851 188.47 180.003 194.833C177.349 196.984 169.552 201.443 168.445 201.443C168.084 201.443 167.917 199.819 167.917 196.337C167.917 192.586 167.673 190.441 166.998 188.252C166.089 185.308 163.598 180.803 162.898 180.841C162.699 180.852 161.735 181.904 160.755 183.177C159.774 184.451 157.617 186.498 155.96 187.727C152.947 189.961 152.947 189.961 152.927 193.71C152.894 199.739 151.169 203.021 146.751 205.462C140.59 208.866 132.577 205.807 130.2 199.142C129.869 198.217 129.59 195.767 129.579 193.699C129.558 189.938 129.558 189.938 126.713 187.862C125.148 186.72 123.367 185.189 122.754 184.46C121.641 183.134 121.64 183.134 120.685 185.01C119.102 188.119 118.331 191.998 118.331 196.855C118.331 199.379 118.208 201.443 118.058 201.443C117.907 201.443 115.644 200.351 113.029 199.016C109.092 197.005 107.586 195.897 104.275 192.571C97.5959 185.864 94.6886 178.724 95.0165 169.839C95.2378 163.851 96.4915 160.998 100.557 157.226C103.67 154.339 106.683 152.994 111.198 152.475C114.121 152.14 114.121 152.14 114.121 148.671C114.121 145.201 114.121 145.201 94.9422 145.201C75.763 145.201 75.763 145.201 75.763 179.884ZM46.0376 150.101C44.0528 152.09 44.7273 154.939 47.4264 155.967C49.095 156.603 50.9634 155.756 51.8138 153.977C53.5123 150.426 48.841 147.292 46.0376 150.101ZM224.686 152.686C222.159 153.733 221.455 156.96 223.288 159.095C225.63 161.823 230.132 160.083 230.132 156.45C230.132 153.7 227.173 151.656 224.686 152.686ZM239.85 152.951C237.392 154.309 236.905 156.974 238.725 159.095C241.067 161.823 245.569 160.083 245.569 156.45C245.569 153.472 242.408 151.538 239.85 152.951ZM231.28 161.35C228.785 163.85 230.536 168.167 234.045 168.167C235.277 168.167 235.951 167.823 236.873 166.725C238.46 164.835 238.413 163.268 236.717 161.569C234.972 159.821 232.89 159.737 231.28 161.35ZM108.274 161.554C103.608 163.712 101.968 168.343 103.41 175.291C103.693 176.657 104.539 179.04 105.288 180.587C106.615 183.325 110.069 187.852 110.831 187.852C111.04 187.852 111.339 187.166 111.497 186.328C111.859 184.399 114.321 179.156 115.743 177.286C116.828 175.86 116.828 175.86 115.673 172.411C114.975 170.325 114.413 167.325 114.251 164.815C113.983 160.668 113.983 160.668 112.064 160.678C111.009 160.684 109.303 161.078 108.274 161.554ZM168.384 163.265C168.384 164.694 168.058 167.445 167.66 169.377C166.935 172.892 166.935 172.892 168.839 175.059C171.647 178.256 173.705 182.209 175.235 187.345C175.542 188.378 178.847 184.885 180.472 181.81C184.248 174.661 184.395 167.468 180.843 163.552C178.915 161.426 176.69 160.668 172.379 160.668C168.384 160.668 168.384 160.668 168.384 163.265ZM138.659 177.285C137.521 178.425 137.511 178.513 137.511 187.299C137.511 195.555 137.577 196.246 138.48 197.396C139.228 198.349 139.862 198.631 141.253 198.631C142.644 198.631 143.278 198.349 144.025 197.396C144.929 196.246 144.995 195.555 144.995 187.299C144.995 178.513 144.985 178.425 143.847 177.285C143.123 176.56 142.164 176.134 141.253 176.134C140.342 176.134 139.383 176.56 138.659 177.285ZM44.4214 198.866C44.4214 202.849 44.4214 202.849 40.6791 202.849C36.9368 202.849 36.9368 202.849 36.9368 206.833C36.9368 210.817 36.9368 210.817 40.6604 210.817C44.3835 210.817 44.3835 210.817 44.5196 214.684C44.6553 218.55 44.6553 218.55 48.5145 218.686C52.3737 218.823 52.3737 218.823 52.3737 214.82C52.3737 210.817 52.3737 210.817 56.3499 210.817C60.3261 210.817 60.3261 210.817 60.3261 206.833C60.3261 202.849 60.3261 202.849 56.3499 202.849C52.3737 202.849 52.3737 202.849 52.3737 198.866C52.3737 194.882 52.3737 194.882 48.3976 194.882C44.4214 194.882 44.4214 194.882 44.4214 198.866ZM231.857 199.162C228.401 199.68 225.241 202.031 223.437 205.427C222.049 208.041 222.047 213.115 223.433 215.744C226.232 221.055 231.715 223.508 237.195 221.901C242.285 220.409 245.578 215.962 245.559 210.608C245.531 203.169 239.386 198.035 231.857 199.162ZM232.11 207.381C231.127 207.778 230.057 210.305 230.397 211.426C230.956 213.264 232.053 214.098 233.913 214.098C235.925 214.098 237.616 212.453 237.616 210.498C237.616 208.183 234.5 206.418 232.11 207.381ZM75.763 226.284C75.763 230.033 75.763 230.033 141.253 230.033C206.743 230.033 206.743 230.033 206.743 226.284C206.743 222.534 206.743 222.534 141.253 222.534C75.763 222.534 75.763 222.534 75.763 226.284ZM37.0215 241.589C45.9791 252.462 47.128 253.478 49.72 252.827C50.5335 252.622 52.8916 250.189 56.8023 245.518C60.0267 241.667 62.665 238.4 62.665 238.259C62.665 238.117 56.2302 238.001 48.3653 238.001C34.0651 238.001 34.0651 238.001 37.0215 241.589ZM220.14 238.587C220.335 238.909 223 242.18 226.063 245.855C229.679 250.193 232.048 252.641 232.819 252.835C235.374 253.477 236.55 252.433 245.484 241.589C248.441 238.001 248.441 238.001 234.113 238.001C222.774 238.001 219.859 238.123 220.14 238.587Z" fill="#E1F5F5"/>
</g>
<defs>
<filter id="filter0_d_83_27" x="0.473517" y="0.0020752" width="290" height="290" filterUnits="userSpaceOnUse" color-interpolation-filters="sRGB">
<feFlood flood-opacity="0" result="BackgroundImageFix"/>
<feColorMatrix in="SourceAlpha" type="matrix" values="0 0 0 0 0 0 0 0 0 0 0 0 0 0 0 0 0 0 127 0" result="hardAlpha"/>
<feOffset dx="4" dy="4"/>
<feGaussianBlur stdDeviation="12.5"/>
<feComposite in2="hardAlpha" operator="out"/>
<feColorMatrix type="matrix" values="0 0 0 0 0.223529 0 0 0 0 0.737255 0 0 0 0 0.74902 0 0 0 0.5 0"/>
<feBlend mode="normal" in2="BackgroundImageFix" result="effect1_dropShadow_83_27"/>
<feBlend mode="normal" in="SourceGraphic" in2="effect1_dropShadow_83_27" result="shape"/>
</filter>
</defs>
</svg>
