<svg width="30" height="30" viewBox="0 0 30 30" fill="none" xmlns="http://www.w3.org/2000/svg">
<g clip-path="url(#clip0_550_361)">
<path d="M23.5 30H6.50004C2.91023 30 0 27.0898 0 23.5V6.50004C0 2.91023 2.91023 0 6.50004 0H23.5001C27.0898 0 30 2.91023 30 6.50004V23.5001C30 27.0898 27.0898 30 23.5 30Z" fill="#00B900"/>
<path d="M25.8741 13.681C25.8741 8.79342 20.9745 4.81689 14.9514 4.81689C8.92795 4.81689 4.02893 8.79342 4.02893 13.681C4.02893 18.0626 7.91463 21.7322 13.1637 22.426C13.5195 22.5027 14.0035 22.6607 14.1258 22.9647C14.236 23.2406 14.1978 23.6734 14.161 23.9526L14.0051 24.8877C13.9574 25.1637 13.7854 25.9677 14.9512 25.4765C16.1169 24.9852 21.2418 21.7725 23.5331 19.1347H23.5327C25.1156 17.399 25.8741 15.6373 25.8741 13.6812" fill="white"/>
<path d="M12.7321 11.3201H11.9657C11.8481 11.3201 11.753 11.4154 11.753 11.5326V16.2918C11.753 16.4088 11.8483 16.5028 11.9657 16.5028H12.7321C12.8496 16.5028 12.9448 16.409 12.9448 16.2918V11.5314C12.9448 11.4142 12.8495 11.319 12.7321 11.319M18.0055 11.3201H17.2383C17.1205 11.3201 17.0256 11.4154 17.0256 11.5326V14.3601L14.8444 11.4146C14.8394 11.4071 14.8336 11.3998 14.828 11.3931L14.8268 11.3916L14.8101 11.3749L14.7986 11.3655C14.7968 11.364 14.7951 11.3624 14.7931 11.3613L14.7821 11.3538C14.7801 11.3522 14.7778 11.3514 14.7756 11.35L14.7644 11.3436L14.7576 11.3403L14.7453 11.335L14.7385 11.3327C14.7343 11.331 14.73 11.3296 14.7256 11.3285L14.7181 11.3265L14.7061 11.3241C14.7031 11.3234 14.6999 11.3229 14.6971 11.3229C14.6933 11.3222 14.6896 11.3218 14.6858 11.3214L14.6748 11.3207C14.6721 11.3207 14.6698 11.3205 14.6673 11.3205H13.9013C13.7837 11.3205 13.6886 11.4158 13.6886 11.5329V16.2922C13.6886 16.4091 13.7839 16.5031 13.9013 16.5031H14.6673C14.7851 16.5031 14.8804 16.4094 14.8804 16.2922V13.4654L17.0639 16.4146C17.0787 16.4352 17.0971 16.453 17.1182 16.4671C17.1187 16.4676 17.1194 16.4683 17.1202 16.4689L17.1334 16.4766L17.1393 16.4801C17.1426 16.4819 17.146 16.4835 17.1495 16.4849L17.1597 16.4894L17.1659 16.4917L17.1806 16.4962C17.1814 16.4964 17.1826 16.4967 17.1837 16.4969C17.2015 16.5017 17.2198 16.504 17.2382 16.5039H18.0042C18.1218 16.5039 18.2169 16.4102 18.2169 16.293V11.5313C18.2169 11.4141 18.1217 11.3188 18.0042 11.3188" fill="#00B900"/>
<path d="M10.8852 15.3113H8.80338V11.5315C8.80338 11.414 8.7081 11.3188 8.59092 11.3188H7.82451C7.70697 11.3188 7.61182 11.4141 7.61182 11.5315V16.2893C7.61179 16.3442 7.63315 16.3969 7.67135 16.4363C7.67205 16.4375 7.67301 16.4387 7.67416 16.4396C7.67533 16.4405 7.6765 16.4415 7.67744 16.4426C7.71687 16.4806 7.76944 16.5018 7.82416 16.5019H10.8851C11.0026 16.5019 11.0976 16.4064 11.0976 16.2892V15.5228C11.0976 15.4053 11.0038 15.3101 10.8851 15.3101M22.2363 12.5097C22.3539 12.5097 22.4488 12.4144 22.4488 12.297V11.5306C22.4488 11.413 22.3551 11.3179 22.2363 11.3179H19.1754C19.1203 11.3178 19.0673 11.3394 19.0279 11.3779C19.0272 11.3786 19.0261 11.3794 19.0255 11.3802C19.0249 11.381 19.0232 11.3826 19.0222 11.384C18.9871 11.4219 18.9633 11.4735 18.9633 11.5304V16.2898C18.9633 16.3467 18.986 16.3985 19.0228 16.4367L19.0255 16.4398L19.0286 16.4426C19.0668 16.4794 19.1186 16.5021 19.1755 16.5021H22.2365C22.354 16.5021 22.4489 16.4069 22.4489 16.2897V15.5233C22.4489 15.4057 22.3552 15.3106 22.2365 15.3106H20.1563V14.5061H22.2378C22.2657 14.5061 22.2934 14.5006 22.3192 14.49C22.345 14.4793 22.3684 14.4636 22.3882 14.4439C22.4079 14.4241 22.4236 14.4006 22.4342 14.3748C22.4448 14.349 22.4503 14.3213 22.4502 14.2934V13.5273C22.4502 13.4098 22.3565 13.3143 22.2378 13.3143H20.1563V12.51H22.2378L22.2363 12.5097Z" fill="#00B900"/>
</g>
<defs>
<clipPath id="clip0_550_361">
<rect width="30" height="30" fill="white"/>
</clipPath>
</defs>
</svg>
