<svg width="290" height="276" viewBox="0 0 290 276" fill="none" xmlns="http://www.w3.org/2000/svg">
<g filter="url(#filter0_d_83_31)">
<path fill-rule="evenodd" clip-rule="evenodd" d="M257.605 91.0939C255.48 90.4046 254.101 90.8756 251.401 93.213C249.123 95.1843 248.959 95.2465 247.563 94.6742C244.297 93.334 240.723 95.7172 240.723 99.2367C240.723 100.338 240.986 101.501 241.307 101.821C241.802 102.316 241.543 102.799 239.592 105.015C237.613 107.263 237.289 107.878 237.255 109.441C237.207 111.675 238.289 113.386 240.261 114.195C242.569 115.141 244.199 114.583 246.849 111.935C248.892 109.894 249.207 109.714 249.766 110.272C250.77 111.275 253.903 111.307 255.334 110.328C257.612 108.772 258.122 106.074 256.671 103.261C256.35 102.64 256.679 102.115 258.568 100.228C260.602 98.1957 260.863 97.739 260.95 96.0588C261.069 93.7637 259.736 91.7849 257.605 91.0939ZM189.153 56.6904C188.709 56.4188 187.594 56.1735 186.675 56.1459C182.11 56.0073 180.002 61.3983 183.325 64.7175C187.013 68.4019 193.172 64.0073 191.165 59.1234C190.52 57.5554 190.472 57.4972 189.153 56.6904ZM220.348 109.457C210.6 102.704 180.775 86.8005 143.066 68.2487C131.475 62.546 129.962 62.1456 127.88 64.2256C125.135 66.9686 125.327 68.1189 130.124 77.5991C131.868 81.0457 133.305 84.0695 133.319 84.3183C133.332 84.5672 117.941 76.9598 99.1161 67.413C80.291 57.8664 64.1101 49.7929 63.1583 49.4725C59.2773 48.1654 55.5468 51.8401 56.837 55.6989C57.078 56.4204 65.2163 72.939 74.9216 92.4075C84.6272 111.876 92.5838 128.012 92.603 128.267C92.6226 128.521 86.0294 126.471 77.9513 123.711C69.8735 120.95 62.5037 118.661 61.5747 118.623C60.6453 118.584 59.3923 118.868 58.7902 119.253C57.3896 120.148 56.2753 122.835 56.638 124.444C57.0412 126.231 77.1287 156.409 97.5625 185.925C115.835 212.32 119.341 216.797 125.86 222.067C139.592 233.167 155.317 238.796 172.618 238.805C192.629 238.815 211.283 231.063 225.287 216.918C248.851 193.114 253.243 155.953 235.903 127.099C231.432 119.659 225.717 113.177 220.348 109.457ZM215.53 118.43C211.282 115.23 197.837 107.582 180.868 98.7156C166.73 91.3281 143.529 79.6371 142.953 79.6095C142.709 79.5978 144.024 82.6759 145.874 86.4501C147.725 90.2237 149.489 93.9748 149.796 94.7855C150.976 97.9049 148.466 101.456 145.154 101.353C143.548 101.303 140.283 99.7052 98.4456 78.4999C84.7207 71.5434 73.5002 66.0642 73.5112 66.3238C73.5223 66.5834 81.2598 82.3509 90.7055 101.363C100.152 120.375 107.992 136.462 108.129 137.112C108.667 139.667 105.936 142.756 103.219 142.667C102.456 142.642 95.635 140.522 88.0597 137.957C78.9872 134.885 74.4292 133.554 74.7044 134.058C76.0763 136.571 105.808 180.173 116.219 194.939C123.229 204.882 124.692 206.733 128.72 210.752C149.453 231.434 182.444 234.508 207.942 218.133C212.091 215.469 220.07 208.035 223.065 204.043C232.232 191.824 236.632 178.186 236.223 163.266C235.845 149.501 230.532 135.129 222.189 125.305C218.311 120.738 217.551 119.954 215.53 118.43ZM202.214 125.621C201.767 125.352 199.631 124.072 197.469 122.775C186.487 116.194 172.503 114.313 159.852 117.716C146.386 121.338 134.9 130.735 128.648 143.245C123.502 153.542 122.188 165.929 125.03 177.353C128.986 193.25 141.393 206.582 157.034 211.744C167.398 215.164 179.541 215.079 189.192 211.517C203.786 206.132 214.469 195.296 219.249 181.03C221.176 175.277 221.841 171.14 221.83 164.959C221.82 158.58 220.802 153.077 218.566 147.3C215.993 140.654 213.913 137.495 208.118 131.434C205.318 128.505 202.661 125.89 202.214 125.621ZM91.2207 21.7668C87.9565 20.4844 84.4172 22.8777 84.4175 26.3673C84.4175 28.3693 84.4175 28.3693 92.8339 36.7773C101.25 45.1852 101.25 45.1852 103.254 45.1852C106.802 45.1852 109.162 41.6143 107.801 38.3036C106.934 36.1933 93.2804 22.5759 91.2207 21.7668ZM119.972 50.005C118.232 49.1153 117.05 48.9878 115.534 49.5274C113.292 50.3258 112.065 52.2005 112.265 54.5232C112.722 59.8199 119.965 60.7487 121.752 55.7396C122.496 53.6553 121.625 50.8505 119.972 50.005ZM194.061 132.465C188.754 129.014 181.171 126.543 174.815 126.193C171.229 125.996 171.229 125.996 172.803 128.978C173.668 130.618 175.319 133.214 176.471 134.747C178.494 137.441 185.582 144.238 188.469 146.255C189.852 147.221 189.852 147.221 191.897 144.863C193.703 142.78 196.985 140.15 199.764 138.558C200.656 138.047 200.612 137.943 198.759 136.143C197.694 135.107 195.579 133.452 194.061 132.465ZM205.883 146.944C201.54 148.892 197.812 152.764 196.292 156.905C194.978 160.484 195.005 164.472 196.389 171.175C197.721 177.623 197.783 182.838 196.585 187.736C195.792 190.983 192.951 197.008 191.558 198.4C189.897 200.059 192.075 199.251 195.326 197.002C206.324 189.39 212.759 175.496 211.601 161.859C211.255 157.79 209.629 151.708 207.947 148.196C207.095 146.417 207.079 146.407 205.883 146.944ZM159.301 128.503C156.872 129.29 150.92 132.57 148.755 134.314C147.115 135.636 147.115 135.636 149.72 137.33C153.304 139.659 157.59 144.543 160.249 149.327C162.285 152.991 164.237 158.214 166.949 167.252C168.133 171.197 168.498 171.896 170.321 173.707C172.587 175.958 174.403 176.558 179.109 176.606C181.411 176.63 186.136 175.84 186.627 175.35C186.741 175.236 186.441 173.266 185.961 170.973C185.012 166.451 184.81 163.137 185.234 159.049C185.506 156.428 185.506 156.428 183.025 154.777C179.452 152.397 171.129 144.566 168.48 141.089C166.174 138.063 163.115 132.722 161.913 129.624C161.235 127.876 161.235 127.876 159.301 128.503ZM58.0793 50.8541C57.2733 51.6592 57.007 52.0522 57.4879 51.7272C57.9686 51.4019 58.6277 50.7435 58.9533 50.2633C59.2786 49.7828 58.8852 50.0489 58.0793 50.8541ZM182.729 186.562C178.575 187.034 174.811 186.803 171.415 185.869C169.238 185.27 169.238 185.27 165.994 187.693C163.996 189.186 161.58 190.54 159.703 191.219C156.323 192.444 150.356 192.795 146.752 191.983C145.485 191.697 144.334 191.577 144.195 191.716C144.055 191.855 145.018 192.869 146.334 193.969C152.519 199.138 158.411 202.085 165.285 203.448C169.109 204.206 169.188 204.196 171.988 202.601C177.597 199.406 183.961 192.701 185.782 188.068C186.545 186.128 186.545 186.128 182.729 186.562ZM142.806 144.992C141.568 144.279 140.453 143.696 140.328 143.696C139.782 143.696 137.574 147.953 136.23 151.596C133.742 158.339 133.075 165.691 134.334 172.496C134.769 174.847 134.769 174.847 138.314 177.182C142.511 179.948 144.917 181.051 148.537 181.869C152.98 182.874 156.664 182.195 159.434 179.862C160.751 178.753 160.751 178.753 159.246 175.702C158.419 174.024 157.085 170.233 156.283 167.277C153.086 155.494 148.833 148.461 142.806 144.992ZM56.4954 77.2354C54.8828 76.5516 52.4813 77.0893 51.1334 78.4358C48.5596 81.007 49.5502 85.2543 53.0117 86.4865C56.9034 87.872 60.6368 84.2185 59.2636 80.3685C58.6482 78.6437 57.9487 77.8518 56.4954 77.2354ZM28.6983 84.2263C25.4342 82.9439 21.8948 85.3372 21.8951 88.8268C21.8951 90.8288 21.8951 90.8288 35.5217 104.442C49.1484 118.055 49.1484 118.055 51.1523 118.055C54.7005 118.055 57.0604 114.484 55.6995 111.173C54.8135 109.017 30.8 85.0519 28.6983 84.2263ZM70.3838 167.502C68.1193 166.621 66.4811 167.203 63.8636 169.818C61.8202 171.859 61.505 172.038 60.9465 171.481C59.9429 170.478 56.8096 170.446 55.3784 171.424C53.1006 172.981 52.59 175.679 54.0414 178.491C54.3615 179.112 54.0349 179.636 52.1644 181.505C50.2096 183.458 49.8781 184.017 49.7426 185.59C49.5443 187.893 50.7704 189.788 52.9658 190.569C55.1964 191.363 56.5498 190.931 59.3118 188.54C61.5893 186.568 61.7531 186.506 63.1491 187.079C66.4159 188.419 69.9895 186.036 69.9891 182.516C69.9891 181.415 69.7267 180.252 69.4059 179.931C68.9103 179.436 69.1705 178.953 71.1341 176.722C73.1843 174.393 73.4432 173.886 73.4214 172.238C73.3914 169.966 72.2846 168.241 70.3838 167.502ZM119.972 237.383C118.232 236.494 117.05 236.366 115.534 236.906C113.292 237.704 112.065 239.579 112.265 241.902C112.722 247.198 119.965 248.127 121.752 243.118C122.496 241.034 121.625 238.229 119.972 237.383Z" fill="#EAE0F1"/>
</g>
<defs>
<filter id="filter0_d_83_31" x="0.895133" y="0.416138" width="289.063" height="275" filterUnits="userSpaceOnUse" color-interpolation-filters="sRGB">
<feFlood flood-opacity="0" result="BackgroundImageFix"/>
<feColorMatrix in="SourceAlpha" type="matrix" values="0 0 0 0 0 0 0 0 0 0 0 0 0 0 0 0 0 0 127 0" result="hardAlpha"/>
<feOffset dx="4" dy="4"/>
<feGaussianBlur stdDeviation="12.5"/>
<feComposite in2="hardAlpha" operator="out"/>
<feColorMatrix type="matrix" values="0 0 0 0 0.827451 0 0 0 0 0.74902 0 0 0 0 0.886275 0 0 0 0.5 0"/>
<feBlend mode="normal" in2="BackgroundImageFix" result="effect1_dropShadow_83_31"/>
<feBlend mode="normal" in="SourceGraphic" in2="effect1_dropShadow_83_31" result="shape"/>
</filter>
</defs>
</svg>
