<svg width="291" height="290" viewBox="0 0 291 290" fill="none" xmlns="http://www.w3.org/2000/svg">
<g filter="url(#filter0_d_83_41)">
<path fill-rule="evenodd" clip-rule="evenodd" d="M129.591 22.0547C126.535 24.1383 126.109 25.1902 125.921 31.1095C125.751 36.4688 125.751 36.4688 78.2425 36.4688C43.5414 36.4688 30.2451 36.6155 28.9208 37.013C26.4908 37.7423 23.6737 40.2361 22.4725 42.7214C21.4907 44.7525 21.4907 44.7525 21.6124 114.398C21.7341 184.044 21.7341 184.044 23.151 186.064C23.9302 187.175 25.4748 188.722 26.5829 189.502C28.5979 190.922 28.5979 190.922 44.1839 191.062C59.7698 191.203 59.7698 191.203 59.942 196.219C60.1311 201.717 60.7937 203.531 63.2958 205.404C64.3838 206.219 65.4933 206.431 69.6538 206.625C74.6936 206.859 74.6936 206.859 69.8452 229.359C64.6416 253.506 64.4147 255.362 66.329 258.055C68.1788 260.657 69.6285 261 78.7924 261C87.6478 261 88.9244 260.747 92.0222 258.38C92.8752 257.729 94.0217 256.314 94.5706 255.236C95.178 254.043 97.5149 244.196 100.544 230.068C105.037 209.11 105.607 206.859 106.428 206.859C107.123 206.859 107.486 207.412 107.968 209.203C109.765 215.875 110.056 216.593 111.716 218.438C114.121 221.114 116.758 222.173 121.715 222.456C125.809 222.69 125.809 222.69 125.947 239.467C126.081 255.644 126.122 256.293 127.065 257.568C127.604 258.295 128.741 259.365 129.591 259.945C131.077 260.958 131.538 261 141.153 261C152.33 261 152.909 260.871 155.192 257.874C156.503 256.153 156.503 256.153 156.642 239.358C156.781 222.562 156.781 222.562 159.544 222.562C168.139 222.562 172.084 219.452 174.097 211.089C175.052 207.122 175.293 206.602 176.127 206.723C176.983 206.846 177.55 209.081 182.047 230.068C184.95 243.612 187.419 254.055 187.978 255.146C189.196 257.527 190.594 258.823 193.237 260.023C195.101 260.87 196.302 260.981 203.695 260.99C212.972 261.001 214.404 260.667 216.26 258.055C218.175 255.362 217.948 253.506 212.744 229.359C207.896 206.859 207.896 206.859 212.936 206.625C217.096 206.431 218.206 206.219 219.294 205.404C221.799 203.529 222.458 201.719 222.648 196.195C222.821 191.156 222.821 191.156 237.393 191.153C245.569 191.152 252.697 190.947 253.633 190.687C255.985 190.032 258.829 187.431 260.302 184.587C261.557 182.163 261.557 182.163 261.557 113.039C261.557 72.5775 261.384 44.0208 261.139 44.1722C260.909 44.3147 260.585 43.8862 260.418 43.2206C259.956 41.3789 256.01 37.7048 253.782 37.0416C252.32 36.6066 240.418 36.4688 204.347 36.4688C156.838 36.4688 156.838 36.4688 156.668 31.1095C156.481 25.1902 156.054 24.1383 152.998 22.0547C151.511 21.0408 151.057 21 141.295 21C131.532 21 131.078 21.0408 129.591 22.0547ZM133.34 32.25C133.34 36.4688 133.34 36.4688 141.295 36.4688C149.25 36.4688 149.25 36.4688 149.25 32.25C149.25 28.0312 149.25 28.0312 141.295 28.0312C133.34 28.0312 133.34 28.0312 133.34 32.25ZM30.2676 44.5547C28.6887 45.7556 28.5193 47.6306 28.5193 63.9089C28.5193 80.0386 28.5193 80.0386 29.8998 80.7534C33.8048 82.7761 41.3748 83.4169 46.65 82.1709C54.5026 80.3161 61.6093 74.5758 64.9818 67.3631C68.1077 60.6769 68.5873 54.0159 66.4376 47.1328C65.4498 43.9688 65.4498 43.9688 48.2438 43.9688C35.2021 43.9688 30.8516 44.1108 30.2676 44.5547ZM73.4423 44.2528C73.4423 44.4089 73.797 45.8325 74.2303 47.4169C75.2907 51.2944 75.2804 59.5144 74.2097 63.8775C72.527 70.733 68.0193 77.8739 62.5232 82.3903C59.1591 85.155 53.4329 88.0945 49.109 89.2777C44.9756 90.4078 35.882 90.4214 32.1908 89.302C30.7355 88.8609 29.3064 88.5 29.0149 88.5C28.648 88.5 28.5259 89.8378 28.6185 92.8359C28.7533 97.1719 28.7533 97.1719 35.3046 100.555C46.7988 106.492 58.9743 110.855 70.4006 113.132C72.4596 113.543 77.4082 113.994 81.3974 114.135C87.4241 114.349 89.6001 114.229 94.266 113.426C108.495 110.98 119.07 105.692 138.487 91.3158C152.951 80.6067 161.48 75.7233 169.958 73.2961C182.995 69.5634 193.926 70.8581 216.454 78.8034C235.01 85.3477 239.462 86.4047 246.964 86.0466C254.803 85.673 254.07 87.7078 254.07 66.3159C254.07 47.2964 253.902 45.3511 252.18 44.4277C251.642 44.1394 237.32 43.9688 213.624 43.9688C175.923 43.9688 175.923 43.9688 175.923 46.8441C175.923 48.4256 175.679 50.5364 175.38 51.5353C174.677 53.8861 172.124 56.8509 169.673 58.1644C167.737 59.2017 167.696 59.2031 141.295 59.2031C114.894 59.2031 114.853 59.2017 112.917 58.1644C110.465 56.8509 107.913 53.8861 107.21 51.5353C106.911 50.5364 106.667 48.4256 106.667 46.8441C106.667 43.9688 106.667 43.9688 90.0544 43.9688C80.9178 43.9688 73.4423 44.0967 73.4423 44.2528ZM114.154 46.8023C114.154 49.1864 114.336 49.8192 115.303 50.7867C116.451 51.9375 116.451 51.9375 141.295 51.9375C166.139 51.9375 166.139 51.9375 167.287 50.7867C168.253 49.8192 168.436 49.1864 168.436 46.8023C168.436 43.9688 168.436 43.9688 141.295 43.9688C114.154 43.9688 114.154 43.9688 114.154 46.8023ZM21.728 113.812C21.728 152.098 21.7832 167.76 21.8511 148.617C21.9189 129.475 21.9189 98.1506 21.8511 79.0078C21.7832 59.8655 21.728 75.5273 21.728 113.812ZM231.606 52.3753C226.594 53.9025 223.186 58.2037 223.186 63.0009C223.186 69.6661 227.797 74.4375 234.238 74.4375C242.792 74.4375 248.157 65.7159 244.283 58.1086C242.068 53.7609 236.027 51.0286 231.606 52.3753ZM231.906 60.4092C230.994 61.1273 230.673 61.8075 230.673 63.0178C230.673 65.2256 231.311 66.2733 233.02 66.87C236.218 67.9866 239.115 64.8192 237.869 61.568C237.525 60.6708 235.306 59.4375 234.035 59.4375C233.542 59.4375 232.584 59.8748 231.906 60.4092ZM177.327 79.1733C167.804 80.6367 158.593 85.4831 142.699 97.3931C128.825 107.789 116.799 114.689 106.82 117.98C98.7213 120.651 92.9005 121.531 83.5032 121.507C74.8812 121.485 70.6739 120.967 62.4455 118.92C53.7562 116.757 43.1389 112.777 34.0177 108.263C28.5193 105.542 28.5193 105.542 28.5193 112.216C28.5193 118.89 28.5193 118.89 32.1459 122.25C38.8586 128.468 53.4254 139.835 58.5368 142.844C60.2429 143.848 60.2429 143.848 62.2345 142.808C66.3314 140.669 71.3824 141.186 74.7703 144.09C77.2247 146.195 78.4835 148.601 78.8747 151.937C79.1761 154.505 79.1761 154.505 84.7966 156.694C96.4691 161.239 104.997 162.809 115.953 162.431C130.322 161.934 137.171 158.898 156.156 144.609C165.057 137.909 170.015 134.474 173.934 132.291C176.006 131.136 176.434 130.665 176.664 129.281C178.863 116.055 190.151 106.327 203.298 106.327C217.846 106.327 230.116 118.452 230.225 132.937C230.245 135.609 230.245 135.609 234.319 138.278C238.098 140.752 245.791 146.885 251.613 152.062C254.07 154.246 254.07 154.246 254.07 123.428C254.07 92.6095 254.07 92.6095 253.017 92.9367C252.438 93.1172 249.753 93.3755 247.051 93.5105C238.808 93.9239 233.661 92.6803 211.019 84.8044C205.743 82.9692 199.11 80.9358 196.279 80.2856C190.398 78.9352 182.06 78.4462 177.327 79.1733ZM197.081 114.673C191.918 116.514 187.595 120.559 185.207 125.782C184.315 127.732 184.143 128.907 184.142 133.031C184.141 139.282 185.177 142.164 188.851 146.14C192.989 150.616 197.616 152.719 203.333 152.719C206.513 152.719 211.389 151.39 213.582 149.927C216.392 148.052 219.52 144.488 220.983 141.493C222.396 138.602 222.484 138.119 222.484 133.256C222.484 128.35 222.405 127.93 220.927 124.921C218.95 120.899 215.653 117.592 211.654 115.62C208.879 114.251 208.004 114.057 204.037 113.932C200.565 113.822 198.996 113.99 197.081 114.673ZM28.5193 154.466C28.5193 180.552 28.6307 182.244 30.4094 183.197C31.5848 183.827 251.005 183.827 252.18 183.197C253.657 182.406 254.07 180.049 254.07 172.42C254.07 165.073 254.07 165.073 249.04 160.096C242.298 153.426 235.529 147.833 229.662 144.086C228.416 143.29 228.416 143.29 226.865 146.205C225.048 149.619 220.544 154.376 217.354 156.249C206.616 162.552 193.259 161.033 184.643 152.529C181.341 149.27 179.555 146.507 177.981 142.224C177.402 140.648 176.683 139.418 176.384 139.491C175.452 139.715 168.982 144.218 161.416 149.907C147.139 160.643 140.664 164.53 132.638 167.183C117.017 172.348 97.2379 170.467 78.1293 162C75.563 160.862 75.563 160.862 73.257 162.299C71.2439 163.552 70.5256 163.734 67.5976 163.734C64.68 163.734 63.9444 163.549 61.9411 162.311C58.6692 160.29 56.5962 156.735 56.5962 153.145C56.5962 150.483 56.5962 150.483 52.2677 147.545C46.591 143.691 40.4337 139.037 34.7355 134.293C32.1988 132.181 29.7627 130.163 29.3214 129.81C28.5656 129.204 28.5193 130.635 28.5193 154.466ZM65.5943 149.282C64.6121 149.678 63.5401 152.207 63.8789 153.328C64.9603 156.903 69.2841 157.664 70.8859 154.56C71.8644 152.665 71.7362 151.436 70.4217 150.12C69.3201 149.016 67.1774 148.644 65.5943 149.282ZM67.359 195.375C67.359 199.594 67.359 199.594 141.295 199.594C215.23 199.594 215.23 199.594 215.23 195.375C215.23 191.156 215.23 191.156 141.295 191.156C67.359 191.156 67.359 191.156 67.359 195.375ZM82.1569 207.445C81.6033 209.339 72.5064 252.444 72.5064 253.172C72.5064 253.881 73.1788 253.969 78.6047 253.969C85.8509 253.969 87.5884 253.455 88.3511 251.085C88.915 249.333 97.7756 208.055 97.7756 207.18C97.7756 206.775 95.7021 206.625 90.0858 206.625C83.1658 206.625 82.3726 206.707 82.1569 207.445ZM115.09 206.88C115.09 207.021 115.428 208.485 115.842 210.134C117.114 215.209 115.041 214.828 141.385 214.828C164.307 214.828 164.307 214.828 165.195 213.729C166.005 212.727 166.384 211.675 167.291 207.914C167.601 206.625 167.601 206.625 141.345 206.625C126.905 206.625 115.09 206.74 115.09 206.88ZM184.814 207.18C184.814 208.055 193.674 249.333 194.238 251.085C195.001 253.455 196.739 253.969 203.985 253.969C209.411 253.969 210.083 253.881 210.083 253.172C210.083 252.444 200.986 209.339 200.433 207.445C200.217 206.707 199.424 206.625 192.504 206.625C186.887 206.625 184.814 206.775 184.814 207.18ZM133.34 238.266C133.34 253.969 133.34 253.969 141.295 253.969C149.25 253.969 149.25 253.969 149.25 238.266C149.25 222.562 149.25 222.562 141.295 222.562C133.34 222.562 133.34 222.562 133.34 238.266Z" fill="#FFFEFD"/>
</g>
<defs>
<filter id="filter0_d_83_41" x="0.557297" y="0" width="290" height="290" filterUnits="userSpaceOnUse" color-interpolation-filters="sRGB">
<feFlood flood-opacity="0" result="BackgroundImageFix"/>
<feColorMatrix in="SourceAlpha" type="matrix" values="0 0 0 0 0 0 0 0 0 0 0 0 0 0 0 0 0 0 127 0" result="hardAlpha"/>
<feOffset dx="4" dy="4"/>
<feGaussianBlur stdDeviation="12.5"/>
<feComposite in2="hardAlpha" operator="out"/>
<feColorMatrix type="matrix" values="0 0 0 0 0.72549 0 0 0 0 0.713726 0 0 0 0 0.811765 0 0 0 0.5 0"/>
<feBlend mode="normal" in2="BackgroundImageFix" result="effect1_dropShadow_83_41"/>
<feBlend mode="normal" in="SourceGraphic" in2="effect1_dropShadow_83_41" result="shape"/>
</filter>
</defs>
</svg>
