<svg width="30" height="32" viewBox="0 0 30 32" fill="none" xmlns="http://www.w3.org/2000/svg">
<g clip-path="url(#clip0_550_354)">
<path d="M7.91157 27.0203L8.40145 27.2652C10.3989 28.4533 12.6825 29.0743 15.0066 29.0614C22.1613 29.0451 28.0397 23.1527 28.0397 15.998C28.0397 12.5403 26.6665 9.21978 24.2244 6.77202C21.7857 4.29897 18.4537 2.90527 14.9813 2.90527C7.85932 2.90527 1.99957 8.76584 1.99957 15.887C1.99957 15.9433 1.99957 15.9988 2.00039 16.0552C2.02184 18.4763 2.69901 20.8464 3.95991 22.9134L4.28647 23.4033L2.98015 28.2204L7.91157 27.0203Z" fill="#00E676"/>
<path d="M25.6777 5.30241C22.8977 2.46601 19.0839 0.874751 15.1127 0.893474H15.0874C6.90893 0.893499 0.178849 7.62361 0.178849 15.8021C0.178849 15.8404 0.179667 15.878 0.179667 15.9164C0.210473 18.5166 0.883612 21.069 2.13918 23.3462L0.0163574 31.1025L7.92787 29.0614C10.1134 30.2613 12.5705 30.8798 15.0637 30.8576C23.2724 30.8127 30.0017 24.0443 29.9968 15.8347C30.0164 11.8904 28.461 8.09714 25.6777 5.30241ZM15.1127 28.3266C12.9027 28.3381 10.7316 27.7452 8.83412 26.612L8.34424 26.3671L3.63327 27.5918L4.85795 22.9379L4.53139 22.4481C3.31828 20.4893 2.67559 18.231 2.67556 15.927C2.67556 9.13243 8.2667 3.54127 15.0613 3.54127C21.8559 3.54127 27.447 9.13243 27.447 15.927C27.447 20.2053 25.2303 24.1912 21.5954 26.4487C19.673 27.6802 17.4366 28.3321 15.1535 28.3266M22.3302 19.2639L21.4321 18.8557C21.4321 18.8557 20.1258 18.2841 19.3093 17.8759C19.2277 17.8759 19.146 17.7943 19.0644 17.7943C18.8631 17.7992 18.6664 17.8554 18.4928 17.9575C18.3189 18.0596 18.4112 18.0392 17.2682 19.3455C17.1906 19.4982 17.0314 19.5937 16.8599 19.5905H16.7783C16.6555 19.5699 16.5418 19.513 16.4517 19.4272L16.0435 19.2639C15.1675 18.893 14.3655 18.3676 13.6757 17.7126C13.5124 17.5493 13.2675 17.386 13.1042 17.2227C12.4998 16.6437 11.9778 15.9844 11.5529 15.2632L11.4713 15.0999C11.4004 15.0001 11.3453 14.89 11.308 14.7733C11.2866 14.6319 11.3155 14.4875 11.3896 14.3651C11.4639 14.2426 11.7162 13.9569 11.9612 13.7119C12.2061 13.467 12.2061 13.3037 12.3694 13.1404C12.4533 13.0239 12.5113 12.8907 12.5395 12.7499C12.5676 12.609 12.5653 12.4638 12.5327 12.3239C12.1522 11.2675 11.7161 10.2319 11.2264 9.22141C11.0951 9.01724 10.8905 8.87115 10.6548 8.81318H9.75672C9.59343 8.81318 9.43015 8.89482 9.26684 8.89482L9.1852 8.97646C9.02191 9.0581 8.85863 9.22141 8.69532 9.30305C8.53203 9.3847 8.45039 9.62965 8.28711 9.79293C7.71633 10.5142 7.40051 11.4042 7.38899 12.3239C7.39803 12.9709 7.53685 13.6095 7.7972 14.2018L7.87887 14.4467C8.61198 16.0142 9.63726 17.4274 10.8998 18.6107L11.2264 18.9373C11.464 19.1341 11.6827 19.3528 11.8795 19.5905C13.5712 21.0625 15.5805 22.1239 17.7499 22.693C17.9948 22.7747 18.3214 22.7747 18.5663 22.8563H19.3828C19.8095 22.8352 20.2269 22.7239 20.6075 22.5297C20.8075 22.4391 20.9986 22.3297 21.179 22.2031L21.3423 22.0398C21.5056 21.8765 21.6689 21.7949 21.8322 21.6316C21.9917 21.4894 22.1293 21.3243 22.2404 21.1417C22.3972 20.776 22.5074 20.3922 22.567 19.9987V19.4272C22.4936 19.3612 22.4111 19.3062 22.322 19.2639" fill="white"/>
</g>
<defs>
<clipPath id="clip0_550_354">
<rect width="30" height="30.217" fill="white" transform="translate(0 0.891602)"/>
</clipPath>
</defs>
</svg>
