<svg width="22" height="25" viewBox="0 0 22 25" fill="none" xmlns="http://www.w3.org/2000/svg">
<path d="M1 12.2548C1 7.86861 1 5.67493 2.17804 4.3129C3.35608 2.95087 5.2508 2.94971 9.04123 2.94971H13.0618C16.8523 2.94971 18.748 2.94971 19.925 4.3129C21.1021 5.6761 21.1031 7.86861 21.1031 12.2548V14.5811C21.1031 18.9672 21.1031 21.1609 19.925 22.5229C18.747 23.885 16.8523 23.8861 13.0618 23.8861H9.04123C5.2508 23.8861 3.35508 23.8861 2.17804 22.5229C1.00101 21.1598 1 18.9672 1 14.5811V12.2548Z" stroke="#FFFEFE" stroke-width="1.5"/>
<path d="M6.02515 2.94978V1.20508M16.0767 2.94978V1.20508M1.50195 8.76546H20.5999" stroke="#FFFEFE" stroke-width="1.5" stroke-linecap="round"/>
<path d="M17.0814 18.0706C17.0814 18.379 16.9755 18.6749 16.787 18.893C16.5985 19.1112 16.3428 19.2337 16.0762 19.2337C15.8096 19.2337 15.554 19.1112 15.3655 18.893C15.177 18.6749 15.0711 18.379 15.0711 18.0706C15.0711 17.7621 15.177 17.4662 15.3655 17.2481C15.554 17.03 15.8096 16.9074 16.0762 16.9074C16.3428 16.9074 16.5985 17.03 16.787 17.2481C16.9755 17.4662 17.0814 17.7621 17.0814 18.0706ZM17.0814 13.418C17.0814 13.7265 16.9755 14.0223 16.787 14.2405C16.5985 14.4586 16.3428 14.5812 16.0762 14.5812C15.8096 14.5812 15.554 14.4586 15.3655 14.2405C15.177 14.0223 15.0711 13.7265 15.0711 13.418C15.0711 13.1095 15.177 12.8137 15.3655 12.5956C15.554 12.3774 15.8096 12.2549 16.0762 12.2549C16.3428 12.2549 16.5985 12.3774 16.787 12.5956C16.9755 12.8137 17.0814 13.1095 17.0814 13.418ZM12.0556 18.0706C12.0556 18.379 11.9497 18.6749 11.7612 18.893C11.5727 19.1112 11.317 19.2337 11.0505 19.2337C10.7839 19.2337 10.5282 19.1112 10.3397 18.893C10.1512 18.6749 10.0453 18.379 10.0453 18.0706C10.0453 17.7621 10.1512 17.4662 10.3397 17.2481C10.5282 17.03 10.7839 16.9074 11.0505 16.9074C11.317 16.9074 11.5727 17.03 11.7612 17.2481C11.9497 17.4662 12.0556 17.7621 12.0556 18.0706ZM12.0556 13.418C12.0556 13.7265 11.9497 14.0223 11.7612 14.2405C11.5727 14.4586 11.317 14.5812 11.0505 14.5812C10.7839 14.5812 10.5282 14.4586 10.3397 14.2405C10.1512 14.0223 10.0453 13.7265 10.0453 13.418C10.0453 13.1095 10.1512 12.8137 10.3397 12.5956C10.5282 12.3774 10.7839 12.2549 11.0505 12.2549C11.317 12.2549 11.5727 12.3774 11.7612 12.5956C11.9497 12.8137 12.0556 13.1095 12.0556 13.418ZM7.02984 18.0706C7.02984 18.379 6.92394 18.6749 6.73544 18.893C6.54693 19.1112 6.29127 19.2337 6.02469 19.2337C5.7581 19.2337 5.50244 19.1112 5.31393 18.893C5.12543 18.6749 5.01953 18.379 5.01953 18.0706C5.01953 17.7621 5.12543 17.4662 5.31393 17.2481C5.50244 17.03 5.7581 16.9074 6.02469 16.9074C6.29127 16.9074 6.54693 17.03 6.73544 17.2481C6.92394 17.4662 7.02984 17.7621 7.02984 18.0706ZM7.02984 13.418C7.02984 13.7265 6.92394 14.0223 6.73544 14.2405C6.54693 14.4586 6.29127 14.5812 6.02469 14.5812C5.7581 14.5812 5.50244 14.4586 5.31393 14.2405C5.12543 14.0223 5.01953 13.7265 5.01953 13.418C5.01953 13.1095 5.12543 12.8137 5.31393 12.5956C5.50244 12.3774 5.7581 12.2549 6.02469 12.2549C6.29127 12.2549 6.54693 12.3774 6.73544 12.5956C6.92394 12.8137 7.02984 13.1095 7.02984 13.418Z" fill="#FFFEFE"/>
</svg>
