<svg width="22" height="25" viewBox="0 0 22 25" fill="none" xmlns="http://www.w3.org/2000/svg">
<path d="M21.0875 7.03479C21.0882 6.88171 21.0629 6.72997 21.0129 6.58825C20.9628 6.44654 20.8891 6.31765 20.796 6.20896L16.5341 1.27727C16.4402 1.16947 16.3288 1.08418 16.2063 1.0263C16.0839 0.968416 15.9527 0.939076 15.8205 0.939961C15.6882 0.939076 15.557 0.968416 15.4346 1.0263C15.3121 1.08418 15.2007 1.16947 15.1068 1.27727L12.2622 4.56894L1.27589 17.282C1.18273 17.3907 1.10902 17.5196 1.059 17.6613C1.00898 17.803 0.983627 17.9548 0.984392 18.1078V23.0395C0.984392 23.348 1.09029 23.6439 1.27879 23.862C1.4673 24.0801 1.72296 24.2027 1.98955 24.2027H6.2514C6.39205 24.2115 6.53273 24.1861 6.66434 24.128C6.79594 24.0699 6.91551 23.9804 7.01532 23.8654L17.9413 11.1523L20.796 7.91877C20.8876 7.80591 20.9623 7.67619 21.0171 7.53494C21.0268 7.44223 21.0268 7.3485 21.0171 7.25579C21.0218 7.20164 21.0218 7.14709 21.0171 7.09295L21.0875 7.03479ZM5.83928 21.8764H2.9947V18.5847L12.9759 7.03479L15.8205 10.3265L5.83928 21.8764ZM17.2377 8.68644L14.3931 5.39477L15.8205 3.75475L18.655 7.03479L17.2377 8.68644Z" fill="#FFFAFA"/>
</svg>
