<svg width="20" height="20" viewBox="0 0 20 20" fill="none" xmlns="http://www.w3.org/2000/svg">
<g clip-path="url(#clip0_320_93)">
<path d="M9.83073 12.0833C9.83073 12.1962 9.78733 12.296 9.70052 12.3828L5.3776 16.7057L7.2526 18.5807C7.41753 18.7457 7.5 18.941 7.5 19.1667C7.5 19.3924 7.41753 19.5877 7.2526 19.7526C7.08767 19.9175 6.89236 20 6.66667 20H0.833333C0.607639 20 0.412326 19.9175 0.247396 19.7526C0.0824653 19.5877 0 19.3924 0 19.1667V13.3333C0 13.1076 0.0824653 12.9123 0.247396 12.7474C0.412326 12.5825 0.607639 12.5 0.833333 12.5C1.05903 12.5 1.25434 12.5825 1.41927 12.7474L3.29427 14.6224L7.61719 10.2995C7.70399 10.2127 7.80382 10.1693 7.91667 10.1693C8.02951 10.1693 8.12934 10.2127 8.21615 10.2995L9.70052 11.7839C9.78733 11.8707 9.83073 11.9705 9.83073 12.0833ZM20 0.833333V6.66667C20 6.89236 19.9175 7.08767 19.7526 7.2526C19.5877 7.41753 19.3924 7.5 19.1667 7.5C18.941 7.5 18.7457 7.41753 18.5807 7.2526L16.7057 5.3776L12.3828 9.70052C12.296 9.78733 12.1962 9.83073 12.0833 9.83073C11.9705 9.83073 11.8707 9.78733 11.7839 9.70052L10.2995 8.21615C10.2127 8.12934 10.1693 8.02951 10.1693 7.91667C10.1693 7.80382 10.2127 7.70399 10.2995 7.61719L14.6224 3.29427L12.7474 1.41927C12.5825 1.25434 12.5 1.05903 12.5 0.833333C12.5 0.607639 12.5825 0.412326 12.7474 0.247396C12.9123 0.0824653 13.1076 0 13.3333 0H19.1667C19.3924 0 19.5877 0.0824653 19.7526 0.247396C19.9175 0.412326 20 0.607639 20 0.833333Z" fill="#98A2B3"/>
</g>
<defs>
<clipPath id="clip0_320_93">
<rect width="20" height="20" fill="white"/>
</clipPath>
</defs>
</svg>
