<svg width="86" height="75" viewBox="0 0 86 75" fill="none" xmlns="http://www.w3.org/2000/svg">
<path d="M68.6702 61.0844C62.79 53.2719 55.523 50.8187 46.5826 50.1969V54.6875C46.5826 56.3563 45.8372 57.925 44.4827 59.1062C41.7737 61.4688 37.0401 61.4531 34.367 59.1219L11.8171 39.725C11.4785 39.4342 11.2096 39.0876 11.0261 38.7054C10.8426 38.3231 10.748 37.9128 10.748 37.4984C10.748 37.084 10.8426 36.6738 11.0261 36.2915C11.2096 35.9093 11.4785 35.5627 11.8171 35.2719L34.3491 15.8875C37.0509 13.5281 41.7773 13.525 44.4863 15.8906C45.8372 17.0719 46.5826 18.6406 46.5826 20.3094V25.6344C63.134 28.55 75.2492 41.25 75.2492 56.2469V59.3719C75.2513 60.0454 75.0035 60.7015 74.5428 61.2421C74.0822 61.7827 73.4334 62.1789 72.6933 62.3716C71.9533 62.5642 71.1616 62.5429 70.4365 62.311C69.7114 62.079 69.0919 61.6487 68.6702 61.0844ZM43.0816 43.7844C50.9901 43.9594 59.7011 45.0156 67.2978 50.4125C65.9267 45.4122 62.818 40.9034 58.3968 37.5025C53.9757 34.1015 48.4578 31.9746 42.5979 31.4125C40.7919 31.2375 39.4159 31.25 39.4159 31.25V20.3219L19.4352 37.4969L39.4159 54.6844V43.75L43.0816 43.7844Z" fill="black"/>
</svg>
