<svg width="33" height="32" viewBox="0 0 33 32" fill="none" xmlns="http://www.w3.org/2000/svg">
<path d="M20.0657 14C20.0657 15.0609 19.6442 16.0783 18.8939 16.8284C18.1437 17.5786 17.1261 18 16.0651 18C15.004 18 13.9865 17.5786 13.2362 16.8284C12.4859 16.0783 12.0645 15.0609 12.0645 14C12.0645 12.9391 12.4859 11.9217 13.2362 11.1716C13.9865 10.4214 15.004 10 16.0651 10C17.1261 10 18.1437 10.4214 18.8939 11.1716C19.6442 11.9217 20.0657 12.9391 20.0657 14Z" stroke="white" stroke-width="2" stroke-linecap="round" stroke-linejoin="round"/>
<path d="M26.0666 14C26.0666 23.5227 16.065 29 16.065 29C16.065 29 6.06348 23.5227 6.06348 14C6.06348 11.3478 7.11721 8.8043 8.99286 6.92893C10.8685 5.05357 13.4125 4 16.065 4C18.7176 4 21.2615 5.05357 23.1372 6.92893C25.0129 8.8043 26.0666 11.3478 26.0666 14Z" stroke="white" stroke-width="2" stroke-linecap="round" stroke-linejoin="round"/>
</svg>
