<svg width="20" height="20" viewBox="0 0 20 20" fill="none" xmlns="http://www.w3.org/2000/svg">
<g clip-path="url(#clip0_99_128)">
<path d="M19.2573 10.7372C19.1162 12.5093 18.4695 14.2037 17.3938 15.6191C16.3181 17.0345 14.8587 18.1114 13.1891 18.7218C11.5194 19.3321 9.70957 19.4504 7.97465 19.0625C6.23973 18.6746 4.65263 17.7968 3.4019 16.5335C2.15117 15.2701 1.28939 13.6742 0.918936 11.9355C0.548483 10.1968 0.684932 8.38827 1.31207 6.72481C1.93921 5.06134 3.03068 3.61287 4.45681 2.55147C5.88294 1.49007 7.58378 0.86036 9.35726 0.737152" stroke="#FFF6E0" stroke-linecap="round" stroke-linejoin="round"/>
<path d="M13.9858 11.5572C13.7279 12.2211 13.3084 12.8104 12.7655 13.2715C12.2226 13.7327 11.5733 14.0512 10.8763 14.1984C10.1793 14.3455 9.45663 14.3166 8.77363 14.1143C8.09063 13.9119 7.46884 13.5425 6.96448 13.0394C6.46013 12.5364 6.08912 11.9155 5.88502 11.2331C5.68091 10.5506 5.65014 9.82799 5.79548 9.13063C5.94083 8.43327 6.25771 7.78314 6.71747 7.23902C7.17723 6.69491 7.76537 6.27398 8.4287 6.01429M10.0001 10L13.5716 6.42858M13.5716 6.42858L16.4287 7.14287L19.2858 4.28572L16.4287 3.57144L15.7144 0.714294L12.8573 3.57144L13.5716 6.42858Z" stroke="#FFF6E0" stroke-linecap="round" stroke-linejoin="round"/>
</g>
<defs>
<clipPath id="clip0_99_128">
<rect width="20" height="20" fill="white"/>
</clipPath>
</defs>
</svg>
