<svg width="1256" height="777" viewBox="0 0 1256 777" fill="none" xmlns="http://www.w3.org/2000/svg">
<path fill-rule="evenodd" clip-rule="evenodd" d="M1377.88 230.488C1341.47 167.466 1332.97 107.877 1333.57 64.0522C1333.86 42.1368 1336.44 24.1663 1338.93 11.6877C1340.18 5.44897 1341.41 0.58487 1342.32 -2.71103C1342.78 -4.35892 1343.15 -5.6145 1343.42 -6.45369C1343.55 -6.87328 1343.65 -7.18871 1343.72 -7.39697C1343.75 -7.50114 1343.78 -7.57846 1343.79 -7.6286L1343.81 -7.68346L1343.82 -7.69552L1343.82 -7.69765C1343.82 -7.69766 1343.82 -7.69727 1341.93 -8.35002C1340.04 -9.00283 1340.04 -9.00155 1340.04 -8.99982L1340.03 -8.99423L1340.03 -8.97529L1340 -8.90662C1339.98 -8.84715 1339.95 -8.76035 1339.92 -8.64671C1339.84 -8.41942 1339.73 -8.08461 1339.6 -7.64517C1339.32 -6.76641 1338.93 -5.46934 1338.47 -3.77822C1337.53 -0.396274 1336.28 4.56243 1335.01 10.9035C1332.48 23.5845 1329.87 41.8014 1329.57 63.9976C1328.96 108.396 1337.57 168.726 1374.42 232.489C1410.83 295.496 1420.35 356.159 1410.37 414.904C1406.17 439.653 1398.49 464.086 1387.88 488.232C1391.45 476.427 1394.28 464.541 1396.32 452.574C1406.46 392.871 1396.74 331.266 1359.88 267.488C1323.47 204.466 1314.97 144.877 1315.57 101.052C1315.86 79.1368 1318.44 61.1663 1320.93 48.6877C1322.18 42.449 1323.41 37.5849 1324.32 34.289C1324.78 32.6411 1325.15 31.3855 1325.42 30.5463C1325.55 30.1267 1325.65 29.8113 1325.72 29.603L1325.77 29.4517L1325.79 29.3714L1325.81 29.3165L1325.82 29.3045L1325.82 29.3023C1325.82 29.3023 1325.82 29.3027 1323.93 28.65C1322.04 27.9972 1322.04 27.9985 1322.04 28.0002L1322.03 28.0058L1322.03 28.0247L1322 28.0934C1321.99 28.1347 1321.97 28.1893 1321.95 28.2569L1321.92 28.3533C1321.84 28.5806 1321.73 28.9154 1321.6 29.3548C1321.32 30.2336 1320.93 31.5307 1320.47 33.2218C1319.53 36.6037 1318.28 41.5624 1317.01 47.9035C1314.48 60.5845 1311.87 78.8014 1311.57 100.998C1310.96 145.396 1319.57 205.726 1356.42 269.489C1392.83 332.496 1402.35 393.159 1392.37 451.904C1388.45 475.002 1381.5 497.825 1371.97 520.396C1359.77 542.603 1345.24 564.572 1328.8 586.325C1256.67 681.773 1176.18 756.328 1058.21 729.73C1001.97 717.05 982.161 670.603 962.631 620.764C962.012 619.185 961.394 617.602 960.774 616.017C941.979 567.924 922.363 517.73 868.359 496.45C823.02 478.585 784.625 486.941 746.306 496.576C744.402 497.054 742.498 497.536 740.594 498.018C704.115 507.25 667.41 516.539 623.764 505.395C511.782 476.803 454.499 409.427 387.818 330.997C373.171 313.769 358.071 296.008 341.838 278.008C296.252 227.459 243.697 226.658 188.888 228.677C185.617 228.798 182.338 228.928 179.051 229.059L179.048 229.059C127.17 231.122 73.4545 233.259 20.2235 197.663L18 200.988C72.3468 237.33 127.29 235.133 179.03 233.064C182.379 232.93 185.714 232.797 189.035 232.674C243.765 230.658 294.596 231.596 338.867 280.687C354.936 298.505 369.932 316.151 384.52 333.317C451.257 411.85 509.459 480.339 622.774 509.271C667.431 520.673 705.04 511.149 741.404 501.939C743.367 501.443 745.325 500.947 747.281 500.455C785.542 490.835 822.83 482.809 866.893 500.172C919.242 520.8 938.266 569.446 957.243 617.971C957.797 619.389 958.352 620.807 958.907 622.224C978.332 671.796 998.765 720.429 1057.33 733.632C1177.89 760.814 1259.82 684.244 1331.99 588.736C1339.29 579.081 1346.22 569.374 1352.74 559.615C1340.8 581.067 1326.69 602.297 1310.8 623.325C1238.67 718.773 1158.18 793.328 1040.21 766.73C983.966 754.05 964.161 707.603 944.631 657.764C944.34 657.021 944.049 656.277 943.758 655.533C943.43 654.695 943.102 653.856 942.774 653.017C923.979 604.924 904.363 554.73 850.359 533.45C805.02 515.585 766.625 523.941 728.306 533.576C726.402 534.054 724.498 534.536 722.594 535.018C686.115 544.25 649.41 553.539 605.764 542.395C493.782 513.803 436.499 446.427 369.818 367.997C355.171 350.769 340.071 333.008 323.838 315.008C278.252 264.459 225.697 263.658 170.888 265.677C167.622 265.797 164.348 265.928 161.067 266.058L161.048 266.059C109.17 268.122 55.4545 270.259 2.22346 234.663L-8.83932e-06 237.988C54.3468 274.33 109.29 272.133 161.03 270.064C164.379 269.93 167.714 269.797 171.035 269.674C225.765 267.658 276.596 268.596 320.867 317.687C336.936 335.505 351.932 353.151 366.52 370.317C433.257 448.85 491.459 517.339 604.774 546.271C649.431 557.673 687.04 548.149 723.404 538.939L723.497 538.916C725.429 538.427 727.356 537.939 729.281 537.455C767.542 527.835 804.83 519.809 848.893 537.172C901.242 557.8 920.266 606.446 939.243 654.971C939.797 656.389 940.352 657.807 940.907 659.224C960.332 708.796 980.765 757.429 1039.33 770.632C1159.89 797.814 1241.82 721.244 1313.99 625.736C1339.59 591.857 1360.68 557.35 1375.57 522.142C1394.68 487.323 1408.16 451.825 1414.32 415.574C1424.46 355.871 1414.74 294.266 1377.88 230.488Z" fill="#F39F5A"/>
</svg>
