<svg width="682" height="793" viewBox="0 0 682 793" fill="none" xmlns="http://www.w3.org/2000/svg">
<path fill-rule="evenodd" clip-rule="evenodd" d="M592.725 127.619C589.495 107.691 588.469 89.2984 588.69 73.0679C588.989 51.1526 591.563 33.182 594.058 20.7035C595.305 14.4647 596.533 9.60061 597.445 6.30471C597.901 4.65682 598.279 3.40124 598.54 2.56205C598.671 2.14246 598.773 1.82703 598.842 1.61877C598.876 1.5146 598.902 1.43728 598.919 1.38714L598.938 1.33228L598.942 1.32022L598.942 1.31809C598.942 1.31808 598.942 1.31847 597.052 0.665718C595.161 0.012909 595.161 0.014191 595.16 0.0159217L595.158 0.0215093L595.152 0.0404452L595.128 0.109124C595.108 0.168594 595.08 0.255389 595.042 0.369032C594.967 0.596316 594.859 0.931126 594.722 1.37057C594.448 2.24933 594.058 3.5464 593.59 5.23752C592.654 8.61947 591.403 13.5782 590.136 19.9192C587.6 32.6003 584.993 50.8172 584.691 73.0133C584.366 96.8104 586.69 125.185 594.59 156.212C598.794 194.238 610.646 238.957 637.544 285.505C651.637 309.894 661.703 333.932 668.168 357.644C670.221 380.015 669.205 402.1 665.497 423.919C655.505 482.716 625.942 539.735 583.924 595.341C511.799 690.789 431.303 765.344 313.33 738.745C257.09 726.066 237.285 679.619 217.756 629.78C217.137 628.201 216.518 626.618 215.899 625.033C197.103 576.939 177.487 526.746 123.484 505.466C78.1445 487.6 39.7493 495.957 1.43042 505.591C0.473328 505.832 -0.483704 506.073 -1.4408 506.315C-2.38776 506.554 -3.33472 506.794 -4.28186 507.034C-40.7604 516.266 -77.4651 525.555 -121.112 514.411C-233.093 485.819 -290.376 418.443 -357.058 340.012C-371.704 322.785 -386.805 305.024 -403.038 287.024C-448.624 236.474 -501.179 235.674 -555.988 237.693C-559.259 237.813 -562.538 237.944 -565.824 238.074L-565.828 238.075C-617.706 240.138 -671.421 242.274 -724.652 206.679L-726.875 210.004C-672.529 246.345 -617.586 244.149 -565.846 242.08C-562.497 241.946 -559.161 241.812 -555.84 241.69C-501.11 239.674 -450.279 240.612 -406.008 289.703C-389.94 307.521 -374.944 325.167 -360.356 342.333C-293.618 420.866 -235.416 489.354 -122.101 518.287C-77.4442 529.689 -39.8352 520.164 -3.47101 510.955C-1.50879 510.458 0.449829 509.962 2.40576 509.471C40.6668 499.851 77.9542 491.825 122.017 509.188C174.367 529.815 193.391 578.462 212.367 626.986L212.419 627.118C212.956 628.492 213.493 629.866 214.032 631.24C233.457 680.812 253.89 729.444 312.45 742.648C433.013 769.83 514.945 693.26 587.115 597.752C629.358 541.85 659.304 484.24 669.44 424.59C671.951 409.816 673.245 394.926 673.212 379.916C678.596 409.747 678.4 439.064 673.497 467.919C663.505 526.716 633.942 583.735 591.924 639.341C519.799 734.789 439.303 809.344 321.33 782.745C265.09 770.066 245.285 723.619 225.756 673.78C225.137 672.201 224.518 670.618 223.899 669.033C205.103 620.939 185.487 570.746 131.484 549.466C86.1445 531.6 47.7493 539.957 9.43042 549.591C7.52637 550.07 5.62256 550.552 3.71814 551.034C-32.7604 560.266 -69.4651 569.555 -113.112 558.411C-225.093 529.819 -282.376 462.443 -349.058 384.012C-363.704 366.785 -378.805 349.024 -395.038 331.024C-440.624 280.474 -493.179 279.674 -547.988 281.693C-551.254 281.813 -554.528 281.943 -557.809 282.074L-557.828 282.075C-609.706 284.138 -663.421 286.274 -716.652 250.679L-718.875 254.004C-664.529 290.345 -609.586 288.149 -557.846 286.08C-554.497 285.946 -551.161 285.812 -547.84 285.69C-493.11 283.674 -442.279 284.612 -398.008 333.703C-381.94 351.521 -366.944 369.167 -352.356 386.333C-285.618 464.866 -227.416 533.354 -114.101 562.287C-69.4442 573.689 -31.8352 564.164 4.52899 554.955C5.63721 554.675 6.74426 554.394 7.8504 554.115C8.70276 553.899 9.5545 553.685 10.4058 553.471C48.6668 543.851 85.9542 535.825 130.017 553.188C182.367 573.815 201.391 622.462 220.367 670.986C220.922 672.404 221.476 673.822 222.032 675.24C241.457 724.812 261.89 773.444 320.45 786.648C441.013 813.83 522.945 737.26 595.115 641.752C637.358 585.85 667.304 528.24 677.44 468.59C683.641 432.101 682.42 394.902 672.119 356.931C668.548 318.598 656.106 279.478 633.007 239.504C616.167 210.36 605.296 181.95 598.535 155.493C597.024 141.71 596.53 128.822 596.69 117.068C596.989 95.1526 599.563 77.182 602.058 64.7035C603.305 58.4647 604.533 53.6006 605.445 50.3047C605.901 48.6568 606.279 47.4012 606.54 46.562C606.671 46.1425 606.773 45.827 606.842 45.6188C606.876 45.5146 606.902 45.4373 606.919 45.3871L606.938 45.3323L606.942 45.3202L606.942 45.3181C606.942 45.3181 606.942 45.3185 605.052 44.6657C603.161 44.0129 603.161 44.0142 603.16 44.0159L603.158 44.0215L603.152 44.0404L603.128 44.1091C603.114 44.1513 603.096 44.2071 603.073 44.2765L603.042 44.369C602.967 44.5963 602.859 44.9311 602.722 45.3706C602.448 46.2493 602.058 47.5464 601.59 49.2375C600.654 52.6195 599.403 57.5782 598.136 63.9192C595.6 76.6003 592.993 94.8171 592.691 117.013C592.644 120.455 592.652 123.992 592.725 127.619ZM602.96 183.878C609.191 214.625 620.801 248.536 641.007 283.504C650.869 300.57 658.788 317.481 664.904 334.242C659.214 303.879 647.734 272.985 629.544 241.505C618.185 221.848 609.509 202.516 602.96 183.878Z" fill="#F39F5A"/>
</svg>
