<svg width="20" height="20" viewBox="0 0 20 20" fill="none" xmlns="http://www.w3.org/2000/svg">
<path d="M6.66667 15.8333H14.5833C16.25 15.8333 17.5 14.5833 17.5 12.9166C17.5 11.25 16.25 9.99998 14.5833 9.99998H12.9167H5.41667C3.75 9.99998 2.5 8.74998 2.5 7.08331C2.5 5.41665 3.75 4.16665 5.41667 4.16665L17.5 4.16665" stroke="#FFF6E0" stroke-linecap="round" stroke-linejoin="round"/>
<path d="M15.4167 6.25L17.5001 4.16667L15.4167 2.08333" stroke="#FFF6E0" stroke-linecap="round" stroke-linejoin="round"/>
<path d="M2.50008 15.8333C2.50008 16.9839 3.43282 17.9167 4.58341 17.9167C5.73401 17.9167 6.66675 16.9839 6.66675 15.8333C6.66675 14.6827 5.73401 13.75 4.58341 13.75C3.43282 13.75 2.50008 14.6827 2.50008 15.8333Z" fill="#FFF6E0" stroke="#FFF6E0"/>
</svg>
